<svg preserveAspectRatio="none" overflow="visible" style="display: block;" width="14.8148" height="14.8148" viewBox="0 0 14.8148 14.8148" fill="none" xmlns="http://www.w3.org/2000/svg">
<g id="Icon">
<path id="Vector" d="M5.92222 2.4321C5.97778 2.09753 6.2679 1.85185 6.60741 1.85185H8.20802C8.54753 1.85185 8.83765 2.09753 8.89321 2.4321L9.02469 3.22284C9.06358 3.4537 9.2179 3.6463 9.42284 3.75988C9.46852 3.78457 9.51358 3.81111 9.55864 3.83827C9.75864 3.95926 10.0031 3.99691 10.2222 3.91481L10.9735 3.63333C11.1274 3.57544 11.2969 3.57406 11.4518 3.62945C11.6066 3.68484 11.7368 3.7934 11.8191 3.9358L12.6191 5.32284C12.7013 5.46525 12.7302 5.63218 12.7008 5.79393C12.6714 5.95568 12.5856 6.10176 12.4586 6.20617L11.8395 6.71667C11.6586 6.86481 11.5691 7.09506 11.5735 7.32901C11.5744 7.38148 11.5744 7.43396 11.5735 7.48642C11.5691 7.71975 11.6586 7.94938 11.8389 8.09753L12.4593 8.60864C12.721 8.82469 12.7889 9.19753 12.6198 9.49136L11.8185 10.8784C11.7363 11.0208 11.6063 11.1294 11.4515 11.1849C11.2968 11.2404 11.1274 11.2392 10.9735 11.1815L10.2222 10.9C10.0031 10.8179 9.75926 10.8556 9.55802 10.9765C9.51327 11.0038 9.468 11.0301 9.42222 11.0556C9.2179 11.1685 9.06358 11.3611 9.02469 11.592L8.89321 12.3821C8.83765 12.7173 8.54753 12.963 8.20802 12.963H6.60679C6.26728 12.963 5.97716 12.7173 5.9216 12.3827L5.79012 11.592C5.75185 11.3611 5.59753 11.1685 5.39259 11.0549C5.34682 11.0297 5.30154 11.0036 5.25679 10.9765C5.05617 10.8556 4.81235 10.8179 4.59259 10.9L3.84136 11.1815C3.68749 11.2392 3.51813 11.2405 3.36339 11.1851C3.20866 11.1297 3.07859 11.0213 2.9963 10.879L2.19568 9.49198C2.11355 9.34957 2.0846 9.18263 2.11399 9.02089C2.14337 8.85914 2.22919 8.71306 2.35617 8.60864L2.97593 8.09815C3.15617 7.95 3.24568 7.71975 3.24136 7.4858C3.24039 7.43334 3.24039 7.38086 3.24136 7.32839C3.24568 7.09506 3.15617 6.86543 2.97593 6.71728L2.35617 6.20617C2.22935 6.10179 2.14363 5.95582 2.11424 5.79421C2.08486 5.6326 2.11371 5.46581 2.19568 5.32346L2.9963 3.93642C3.07851 3.79391 3.20865 3.68522 3.36353 3.62971C3.5184 3.57421 3.68796 3.57549 3.84198 3.63333L4.59259 3.91481C4.81235 3.99691 5.05617 3.95926 5.25679 3.83827C5.30123 3.81111 5.34691 3.78457 5.39259 3.75926C5.59753 3.6463 5.75185 3.4537 5.79012 3.22284L5.92222 2.4321V2.4321Z" stroke="#717184" stroke-width="1.11111" stroke-linecap="round" stroke-linejoin="round"/>
<path id="Vector_2" d="M9.25926 7.40741C9.25926 7.89855 9.06415 8.36957 8.71686 8.71686C8.36957 9.06415 7.89855 9.25926 7.40741 9.25926C6.91627 9.25926 6.44524 9.06415 6.09795 8.71686C5.75066 8.36957 5.55556 7.89855 5.55556 7.40741C5.55556 6.91627 5.75066 6.44524 6.09795 6.09795C6.44524 5.75066 6.91627 5.55556 7.40741 5.55556C7.89855 5.55556 8.36957 5.75066 8.71686 6.09795C9.06415 6.44524 9.25926 6.91627 9.25926 7.40741V7.40741Z" stroke="#717184" stroke-width="1.11111" stroke-linecap="round" stroke-linejoin="round"/>
</g>
</svg>
